<?xml version="1.0" encoding="UTF-8"?>
<svg version="1.1" xmlns="http://www.w3.org/2000/svg" width="207" height="207">
<path d="M0 0 C3.42682879 1.47877606 5.65037109 3.40326147 8.27740479 6.03689575 C9.12431885 6.88106049 9.97123291 7.72522522 10.84381104 8.5949707 C11.76450378 9.522854 12.68519653 10.4507373 13.63378906 11.40673828 C14.61915853 12.39267205 15.60496893 13.37816533 16.59118652 14.36325073 C19.26478265 17.03627309 21.93216786 19.71541662 24.59848499 22.39569712 C27.38692731 25.19664267 30.18103513 27.99192479 32.97454834 30.78781128 C38.26249589 36.08197478 43.54532455 41.38121585 48.82633567 46.68229759 C54.83929384 52.71761114 60.85793262 58.74724606 66.8770566 64.77640939 C79.25770525 77.17796265 91.63119696 89.58663262 104 102 C99.08449376 107.92707277 93.7764013 113.35903664 88.32275391 118.79077148 C87.35614889 119.7570939 86.38976506 120.72363761 85.42358398 121.69038391 C82.81881787 124.29543517 80.2109955 126.89740683 77.60258532 129.49880862 C74.87016662 132.22494639 72.14060801 134.95394486 69.41073608 137.68263245 C64.24929386 142.84097527 59.0853094 147.99676519 53.92039144 153.1516276 C48.0368792 159.02393537 42.15622992 164.89910663 36.27581143 170.77451217 C24.18704204 182.8528487 12.0947081 194.92761029 0 207 C-5.8587357 202.13721083 -11.23644152 196.89921475 -16.60717773 191.50634766 C-17.55379596 190.55944681 -18.50063551 189.61276719 -19.44767761 188.66629028 C-21.99901164 186.11524132 -24.5472664 183.56113695 -27.09495044 181.0064435 C-29.76503319 178.33007869 -32.43797774 175.65657504 -35.11061096 172.98275757 C-40.16270611 167.92756335 -45.21224829 162.86982708 -50.26086241 157.81115663 C-56.01225297 152.04856058 -61.76650792 146.28882838 -67.52099693 140.52932668 C-79.35050567 128.6893858 -91.17643916 116.84588062 -103 105 C-101.51619764 101.55530082 -99.57149259 99.32441693 -96.92514038 96.68463135 C-96.07256149 95.82930313 -95.2199826 94.97397491 -94.34156799 94.09272766 C-93.39495937 93.15319666 -92.44825511 92.21376201 -91.50146484 91.27441406 C-90.50567898 90.2791925 -89.51033361 89.28353002 -88.51539612 88.28746033 C-85.81551531 85.58700572 -83.10951264 82.89276184 -80.40237379 80.19958591 C-77.57340123 77.38311612 -74.75009167 74.56098129 -71.92617798 71.73944092 C-66.57889055 66.39836959 -61.22652533 61.06241696 -55.87231982 55.72828174 C-49.77654811 49.65486497 -43.68645466 43.575768 -37.59683299 37.49618578 C-25.0708658 24.99112352 -12.53778085 12.4932171 0 0 Z " fill="#F6F604" transform="translate(103,0)"/>
<path d="M0 0 C5.94 0 11.88 0 18 0 C18 30.36 18 60.72 18 92 C12.06 92 6.12 92 0 92 C-0.495 79.625 -0.495 79.625 -1 67 C-9.25 75.25 -17.5 83.5 -26 92 C-30.61586002 88.04354855 -34.80181 84.30058488 -39 80 C-37.62903299 76.82893333 -36.16307885 75.03753996 -33.48413086 72.87597656 C-9.948561 54.68779456 -9.948561 54.68779456 1.60546875 28.71875 C2.29266617 19.06810574 1.33623964 9.55311621 0 0 Z " fill="#21211F" transform="translate(96,52)"/>
<path d="M0 0 C3.42682879 1.47877606 5.65037109 3.40326147 8.27740479 6.03689575 C9.12431885 6.88106049 9.97123291 7.72522522 10.84381104 8.5949707 C11.76450378 9.522854 12.68519653 10.4507373 13.63378906 11.40673828 C14.61915853 12.39267205 15.60496893 13.37816533 16.59118652 14.36325073 C19.26478265 17.03627309 21.93216786 19.71541662 24.59848499 22.39569712 C27.38692731 25.19664267 30.18103513 27.99192479 32.97454834 30.78781128 C38.26249589 36.08197478 43.54532455 41.38121585 48.82633567 46.68229759 C54.83929384 52.71761114 60.85793262 58.74724606 66.8770566 64.77640939 C79.25770525 77.17796265 91.63119696 89.58663262 104 102 C99.08449376 107.92707277 93.7764013 113.35903664 88.32275391 118.79077148 C87.35614889 119.7570939 86.38976506 120.72363761 85.42358398 121.69038391 C82.81881787 124.29543517 80.2109955 126.89740683 77.60258532 129.49880862 C74.87016662 132.22494639 72.14060801 134.95394486 69.41073608 137.68263245 C64.24929386 142.84097527 59.0853094 147.99676519 53.92039144 153.1516276 C48.0368792 159.02393537 42.15622992 164.89910663 36.27581143 170.77451217 C24.18704204 182.8528487 12.0947081 194.92761029 0 207 C-5.8587357 202.13721083 -11.23644152 196.89921475 -16.60717773 191.50634766 C-17.55379596 190.55944681 -18.50063551 189.61276719 -19.44767761 188.66629028 C-21.99901164 186.11524132 -24.5472664 183.56113695 -27.09495044 181.0064435 C-29.76503319 178.33007869 -32.43797774 175.65657504 -35.11061096 172.98275757 C-40.16270611 167.92756335 -45.21224829 162.86982708 -50.26086241 157.81115663 C-56.01225297 152.04856058 -61.76650792 146.28882838 -67.52099693 140.52932668 C-79.35050567 128.6893858 -91.17643916 116.84588062 -103 105 C-101.51619764 101.55530082 -99.57149259 99.32441693 -96.92514038 96.68463135 C-96.07256149 95.82930313 -95.2199826 94.97397491 -94.34156799 94.09272766 C-93.39495937 93.15319666 -92.44825511 92.21376201 -91.50146484 91.27441406 C-90.50567898 90.2791925 -89.51033361 89.28353002 -88.51539612 88.28746033 C-85.81551531 85.58700572 -83.10951264 82.89276184 -80.40237379 80.19958591 C-77.57340123 77.38311612 -74.75009167 74.56098129 -71.92617798 71.73944092 C-66.57889055 66.39836959 -61.22652533 61.06241696 -55.87231982 55.72828174 C-49.77654811 49.65486497 -43.68645466 43.575768 -37.59683299 37.49618578 C-25.0708658 24.99112352 -12.53778085 12.4932171 0 0 Z M-1.77659798 6.53050232 C-2.49744009 7.25318802 -3.2182822 7.97587372 -3.96096802 8.72045898 C-4.78830444 9.54504608 -5.61564087 10.36963318 -6.4680481 11.21920776 C-7.37722992 12.13558014 -8.28641174 13.05195251 -9.22314453 13.99609375 C-10.18851506 14.96202809 -11.15432555 15.9275229 -12.12054443 16.89260864 C-14.74880705 19.52029558 -17.37084205 22.15411952 -19.99183893 24.78905106 C-22.72959286 27.53927669 -25.47298191 30.28386908 -28.21578979 33.02905273 C-33.41171792 38.23120612 -38.60252527 43.43843841 -43.7915324 48.64749432 C-49.69805191 54.57634033 -55.61022679 60.49953295 -61.52289414 66.42224693 C-73.68825324 78.60853173 -85.84645667 90.8019314 -98 103 C-96.54721611 106.3367038 -94.72208531 108.52520252 -92.15292358 111.08758545 C-91.35082962 111.89242874 -90.54873566 112.69727203 -89.72233582 113.52650452 C-88.84120621 114.40044357 -87.9600766 115.27438263 -87.05224609 116.17480469 C-86.12536484 117.101978 -85.19848358 118.02915131 -84.24351501 118.98442078 C-81.70478483 121.52372458 -79.15993719 124.05681635 -76.61394835 126.58883953 C-73.95313773 129.23714437 -71.29799293 131.89111721 -68.64224243 134.54449463 C-63.61369853 139.56682332 -58.58007829 144.58403216 -53.54461539 149.59942269 C-47.81159255 155.31008784 -42.0842503 161.02643567 -36.35737872 166.74326849 C-24.57789614 178.50184813 -12.79129851 190.25326895 -1 202 C4.75628153 197.21647413 10.05263186 192.08336967 15.33178711 186.78173828 C16.23989136 185.87378006 17.14799561 184.96582184 18.08361816 184.03034973 C20.55437636 181.5598765 23.02205581 179.08634917 25.48916316 176.61223078 C28.07516336 174.01994675 30.66402707 171.43052557 33.25257874 168.84078979 C38.14530237 163.9449676 43.03547296 159.04660364 47.92471462 154.14730442 C53.49472932 148.5660826 59.06760984 142.98772606 64.64072406 137.40959954 C76.09699112 125.94290153 87.54968266 114.47263931 99 103 C94.27312286 97.32104176 89.2214378 92.07330847 83.99707031 86.85180664 C83.11183182 85.96320953 82.22659332 85.07461243 81.31452942 84.15908813 C78.90560835 81.74233916 76.49446822 79.32785228 74.0819521 76.91469502 C72.57409138 75.40612072 71.06694606 73.89683548 69.56005096 72.38729668 C64.30182925 67.11985339 59.04106127 61.85496897 53.77783203 56.5925293 C48.87098171 51.68628219 43.96976402 46.77445697 39.07109189 41.86004549 C34.85966887 37.63557358 30.64442667 33.41493876 26.4261539 29.19730657 C23.90873463 26.68014263 21.39290338 24.16143944 18.88089752 21.63887215 C16.08793472 18.834484 13.28705996 16.03808398 10.48535156 13.24243164 C9.65105118 12.40251175 8.81675079 11.56259186 7.95716858 10.69721985 C7.19740219 9.94164795 6.4376358 9.18607605 5.65484619 8.40760803 C4.9934174 7.74563447 4.3319886 7.08366091 3.65051651 6.40162754 C1.28709194 4.39459462 0.55862299 4.51875788 -1.77659798 6.53050232 Z " fill="#8B8B33" transform="translate(103,0)"/>
</svg>
